/vscmnt/brussel_pixiu_data/_data_brussel/112/vsc11236/PredSimResults/SUBJ04_Falisse2022/weighted/worker_01.mot
version=1
nRows=4
nColumns=124
inDegrees=yes
endheader
                time	         pelvis_tilt	         pelvis_list	     pelvis_rotation	           pelvis_tx	           pelvis_ty	           pelvis_tz	       hip_flexion_r	     hip_adduction_r	      hip_rotation_r	        knee_angle_r	       ankle_angle_r	    subtalar_angle_r	         mtp_angle_r	       hip_flexion_l	     hip_adduction_l	      hip_rotation_l	        knee_angle_l	       ankle_angle_l	    subtalar_angle_l	         mtp_angle_l	    lumbar_extension	      lumbar_bending	     lumbar_rotation	          arm_flex_r	           arm_add_r	           arm_rot_r	        elbow_flex_r	          arm_flex_l	           arm_add_l	           arm_rot_l	        elbow_flex_l	glut_med1_r/activation	glut_med2_r/activation	glut_med3_r/activation	glut_min1_r/activation	glut_min2_r/activation	glut_min3_r/activation	semimem_r/activation	semiten_r/activation	bifemlh_r/activation	bifemsh_r/activation	    sar_r/activation	add_long_r/activation	add_brev_r/activation	add_mag1_r/activation	add_mag2_r/activation	add_mag3_r/activation	    tfl_r/activation	   pect_r/activation	   grac_r/activation	glut_max1_r/activation	glut_max2_r/activation	glut_max3_r/activation	iliacus_r/activation	  psoas_r/activation	quad_fem_r/activation	    gem_r/activation	   peri_r/activation	rect_fem_r/activation	vas_med_r/activation	vas_int_r/activation	vas_lat_r/activation	med_gas_r/activation	lat_gas_r/activation	 soleus_r/activation	tib_post_r/activation	flex_dig_r/activation	flex_hal_r/activation	tib_ant_r/activation	per_brev_r/activation	per_long_r/activation	per_tert_r/activation	ext_dig_r/activation	ext_hal_r/activation	glut_med1_l/activation	glut_med2_l/activation	glut_med3_l/activation	glut_min1_l/activation	glut_min2_l/activation	glut_min3_l/activation	semimem_l/activation	semiten_l/activation	bifemlh_l/activation	bifemsh_l/activation	    sar_l/activation	add_long_l/activation	add_brev_l/activation	add_mag1_l/activation	add_mag2_l/activation	add_mag3_l/activation	    tfl_l/activation	   pect_l/activation	   grac_l/activation	glut_max1_l/activation	glut_max2_l/activation	glut_max3_l/activation	iliacus_l/activation	  psoas_l/activation	quad_fem_l/activation	    gem_l/activation	   peri_l/activation	rect_fem_l/activation	vas_med_l/activation	vas_int_l/activation	vas_lat_l/activation	med_gas_l/activation	lat_gas_l/activation	 soleus_l/activation	tib_post_l/activation	flex_dig_l/activation	flex_hal_l/activation	tib_ant_l/activation	per_brev_l/activation	per_long_l/activation	per_tert_l/activation	ext_dig_l/activation	ext_hal_l/activation	 ercspn_r/activation	 ercspn_l/activation	 intobl_r/activation	 intobl_l/activation	 extobl_r/activation	 extobl_l/activation	
          0.00000000	         -7.40722725	         -2.11848338	          1.82299548	          0.00000000	          0.87568204	         -0.00449809	         31.35771005	          4.62284930	          4.77333721	         -5.69849100	          7.63365490	         -7.09709724	          0.21185466	        -10.78145597	          1.84289653	         12.44500104	         -5.22050064	          7.52201921	         -6.79127617	         26.63336201	          0.62932529	          0.70300693	         -1.70120163	         -0.38948917	        -13.44983407	         19.29567312	         24.21644917	          0.35721151	        -13.46652902	         19.27482586	         42.95293850	          0.01947760	          0.01000037	          0.01000034	          0.01100797	          0.01000137	          0.01000070	          0.07265256	          0.02436543	          0.01171318	          0.01000046	          0.01005765	          0.05605870	          0.14848910	          0.15532467	          0.11754968	          0.04519838	          0.01000135	          0.02389840	          0.06384831	          0.01000033	          0.01000031	          0.03022770	          0.01863035	          0.01863083	          0.14632203	          0.01000914	          0.01000328	          0.02328919	          0.07946614	          0.07946405	          0.06467130	          0.01000008	          0.01000021	          0.01000011	          0.01784569	          0.01514027	          0.01514263	          0.24815030	          0.15853547	          0.14730294	          0.06412945	          0.34726501	          0.11518109	          0.27284902	          0.20922253	          0.14679006	          0.18777298	          0.23227262	          0.20264886	          0.01000886	          0.01000126	          0.01000105	          0.04416150	          0.10086564	          0.01000056	          0.01000076	          0.01000177	          0.01000557	          0.01000173	          0.25137982	          0.01000355	          0.01000701	          0.03777063	          0.02294051	          0.01001327	          0.29137097	          0.36545086	          0.02627058	          0.02937152	          0.15240380	          0.03345590	          0.01000269	          0.01000296	          0.01000304	          0.29033522	          0.35324592	          0.32899691	          0.27799632	          0.26033828	          0.24743486	          0.01230807	          0.01208703	          0.01230477	          0.01000170	          0.01000063	          0.01000474	          0.03527515	          0.01000016	          0.05203259	          0.01230327	          0.05343172	          0.01000010	
          0.01382645	         -7.40576760	         -2.36945781	          2.03548705	          0.01535498	          0.87445388	         -0.00432523	         30.29904261	          4.97142806	          5.16694632	         -5.45126525	          6.71470552	         -7.63408004	          0.19707960	        -10.81150515	          1.67435039	         11.92438932	         -7.04957647	          7.56530924	         -6.28423963	         28.21792621	          0.76135125	          1.19733829	         -1.76996426	         -1.12552681	        -13.45612200	         19.23420413	         22.31165201	         -0.19723049	        -13.48147914	         19.19916336	         45.44798234	          0.07489474	          0.01000178	          0.01000664	          0.01000134	          0.01000219	          0.12113534	          0.06210408	          0.01980868	          0.03189638	          0.02006178	          0.01002716	          0.04556005	          0.12067973	          0.12623525	          0.09553493	          0.03673379	          0.01000774	          0.01942468	          0.05189134	          0.01002415	          0.02112134	          0.02456801	          0.01514135	          0.01514174	          0.11892029	          0.02816609	          0.13289869	          0.01892759	          0.06458374	          0.06458206	          0.05255972	          0.01862844	          0.01812345	          0.01554444	          0.01450356	          0.01230528	          0.01230714	          0.30085604	          0.19557729	          0.11971589	          0.05949260	          0.42549740	          0.09360993	          0.27196289	          0.17003879	          0.11929881	          0.16923045	          0.18877251	          0.16469635	          0.01103737	          0.01225257	          0.01005072	          0.03589099	          0.08197613	          0.01000515	          0.01000249	          0.01000543	          0.01001503	          0.01000474	          0.20430113	          0.01002411	          0.01220545	          0.03069837	          0.01864553	          0.01000429	          0.26687205	          0.32347359	          0.02135085	          0.02387190	          0.12386124	          0.02719029	          0.01000076	          0.01000076	          0.01000071	          0.24051039	          0.31507922	          0.32981559	          0.26668436	          0.24606062	          0.24341343	          0.01000315	          0.01000047	          0.01000054	          0.01000102	          0.01000039	          0.01000225	          0.02866875	          0.01903736	          0.06701620	          0.01000019	          0.04342488	          0.01000364	
          0.02765290	         -7.40171904	         -2.62090152	          2.23057170	          0.03089890	          0.87335530	         -0.00412372	         29.17272986	          5.28471786	          5.56462011	         -5.14333164	          5.81648224	         -8.17790493	          0.19729185	        -10.74842370	          1.50108193	         11.38586594	         -9.05400847	          7.50477208	         -5.76457662	         29.73826202	          0.89743999	          1.70266117	         -1.83150905	         -1.92098082	        -13.46449055	         19.20389489	         20.54021108	         -0.81729698	        -13.49432765	         19.11362485	         47.96399441	          0.13782683	          0.15361937	          0.17499903	          0.08594314	          0.09230319	          0.09845175	          0.05047319	          0.04268197	          0.02674289	          0.01862305	          0.01001152	          0.03702760	          0.09807858	          0.10259395	          0.07764365	          0.02985594	          0.01000329	          0.01578865	          0.04217373	          0.09135280	          0.04936265	          0.02055777	          0.01230579	          0.01230611	          0.09664920	          0.02289512	          0.11925741	          0.01538285	          0.05248870	          0.05248735	          0.04271657	          0.01513967	          0.01472929	          0.01263324	          0.01178735	          0.01000146	          0.01000262	          0.38334838	          0.21326928	          0.13311357	          0.29060487	          0.45112033	          0.18894798	          0.28173498	          0.13819351	          0.09695621	          0.19449601	          0.15341939	          0.13385173	          0.01002786	          0.01000184	          0.01000133	          0.02916934	          0.06662402	          0.01000070	          0.01000093	          0.01000205	          0.01000677	          0.01000214	          0.16604002	          0.01000469	          0.01000716	          0.02495054	          0.01515516	          0.01000493	          0.21689383	          0.27968535	          0.01735250	          0.01940235	          0.10066421	          0.03469569	          0.01000153	          0.01000157	          0.01000143	          0.19546689	          0.25607061	          0.31506494	          0.25555773	          0.23525692	          0.23327866	          0.01000055	          0.01000059	          0.01000038	          0.01000126	          0.01000049	          0.01000287	          0.04689909	          0.03007224	          0.05446550	          0.01000006	          0.03529216	          0.01000013	
          0.04147935	         -7.39600219	         -2.86047902	          2.41051452	          0.04646723	          0.87252526	         -0.00388164	         28.04570777	          5.58865267	          5.95708927	         -4.81730086	          4.88485559	         -8.72133055	          0.18957708	        -10.57386539	          1.32787356	         10.84067099	        -11.23220220	          7.30564999	         -5.21679912	         31.13142258	          1.02855000	          2.20214211	         -1.88684160	         -2.74620357	        -13.46638728	         19.21370463	         18.90199568	         -1.45229115	        -13.50217361	         19.04927113	         50.42544099	          0.20169640	          0.22326802	          0.24295488	          0.06987699	          0.11168778	          0.14196088	          0.04102073	          0.03471915	          0.02483539	          0.01513556	          0.01000273	          0.03009312	          0.07971026	          0.08338046	          0.06310450	          0.03778229	          0.01000374	          0.01283406	          0.03427585	          0.13428194	          0.07938919	          0.04024861	          0.01000135	          0.01000161	          0.07854926	          0.01861314	          0.13326131	          0.01250205	          0.06331514	          0.06219461	          0.05108830	          0.01230432	          0.01197087	          0.01026728	          0.01000319	          0.01000411	          0.01000352	          0.44756771	          0.23737483	          0.13671754	          0.33720187	          0.49166284	          0.21472246	          0.25487406	          0.11231228	          0.07879799	          0.15807858	          0.12468695	          0.10878371	          0.01005890	          0.01000371	          0.01000211	          0.02370654	          0.05414686	          0.02388890	          0.01002524	          0.01002057	          0.01003620	          0.01001332	          0.13494403	          0.02960658	          0.01001516	          0.02027881	          0.01231818	          0.01000479	          0.17627363	          0.22730562	          0.01410292	          0.01576956	          0.08181159	          0.02819814	          0.01000523	          0.01000529	          0.01000417	          0.15885926	          0.20811304	          0.29095764	          0.24434768	          0.22635369	          0.22245490	          0.01000028	          0.01230302	          0.01230970	          0.01000212	          0.01000052	          0.01000169	          0.05527528	          0.04923376	          0.04426509	          0.01000009	          0.02868255	          0.01000013	
